<svg width="34" height="34" viewBox="0 0 34 34" fill="none" xmlns="http://www.w3.org/2000/svg">
<path d="M24.8962 33.5318C24.4162 33.1918 23.9262 32.8718 23.4662 32.5118C19.9562 29.7218 16.4562 26.9118 12.9462 24.1218C12.8262 24.0218 12.6362 23.9618 12.4762 23.9618C10.7862 23.9518 9.0962 23.9618 7.3962 23.9618C5.7862 23.9618 4.7862 22.9618 4.7862 21.3418C4.7862 18.3118 4.7862 15.2718 4.7862 12.2418C4.7862 10.5718 5.7762 9.58176 7.4562 9.58176C7.5662 9.58176 7.6762 9.58176 7.8662 9.58176C7.7462 9.45176 7.6662 9.36176 7.5862 9.29176C5.2062 6.91176 2.8362 4.53176 0.456204 2.16176C0.0962041 1.80176 -0.0937958 1.40176 0.0462042 0.891758C0.286204 0.0317584 1.3062 -0.27824 1.9762 0.31176C2.1962 0.50176 2.3962 0.721759 2.6062 0.931759C12.7062 11.0318 22.8162 21.1318 32.9062 31.2418C33.1562 31.4918 33.3262 31.8118 33.5262 32.1018V32.6218C33.3462 33.0618 33.0462 33.3618 32.6062 33.5418H32.0162C31.7062 33.2918 31.3662 33.0718 31.0862 32.7918C29.5862 31.3118 28.1062 29.8218 26.6162 28.3318C26.5362 28.2518 26.4562 28.1818 26.3262 28.0718C26.3262 29.4418 26.3062 30.7318 26.3262 32.0118C26.3462 32.7518 26.1062 33.2818 25.3862 33.5418H24.8662L24.8962 33.5318Z" fill="#878D8A"/>
<path d="M26.3262 21.2118L13.8262 8.71176C13.9062 8.64176 13.9862 8.57176 14.0762 8.50176C17.4862 5.79176 20.8862 3.08176 24.2862 0.361757C24.7162 0.0217572 25.1662 -0.128242 25.6762 0.131758C26.1762 0.381758 26.3462 0.811757 26.3462 1.34176C26.3462 7.86176 26.3462 14.3718 26.3462 20.8918C26.3462 20.9818 26.3462 21.0818 26.3262 21.2118Z" fill="#878D8A"/>
</svg>
