<svg width="36" height="34" viewBox="0 0 36 34" fill="none" xmlns="http://www.w3.org/2000/svg">
<path d="M0.02 11.585C0.25 11.155 0.42 10.685 0.72 10.325C1.18 9.77501 1.83 9.59501 2.55 9.59501C4.25 9.59501 5.94 9.59501 7.64 9.59501C7.84 9.59501 8.08 9.51501 8.24 9.38501C11.97 6.39501 15.7 3.41501 19.43 0.415007C19.81 0.105007 20.21 -0.104993 20.71 0.0550068C21.2 0.205007 21.53 0.625007 21.56 1.14501C21.56 1.23501 21.56 1.33501 21.56 1.42501C21.56 11.655 21.56 21.895 21.56 32.125C21.56 32.635 21.45 33.075 20.99 33.365C20.51 33.665 20.01 33.605 19.47 33.175C17.43 31.545 15.4 29.915 13.36 28.285C11.63 26.905 9.91 25.525 8.18 24.155C8.04 24.045 7.83 23.975 7.65 23.965C6.08 23.955 4.51 23.915 2.95 23.965C1.54 24.015 0.46 23.545 0 21.965V11.585H0.02Z" fill="#878D8A"/>
<path d="M35.95 17.105C35.88 21.345 34.29 25.285 31.08 28.555C30.59 29.055 29.94 29.105 29.44 28.715C28.96 28.345 28.84 27.655 29.17 27.145C29.26 26.995 29.39 26.875 29.51 26.745C31.65 24.535 32.99 21.915 33.4 18.865C34.01 14.325 32.76 10.335 29.64 6.95499C29.53 6.83499 29.41 6.72499 29.3 6.59499C28.86 6.09499 28.88 5.36499 29.35 4.91499C29.82 4.46499 30.54 4.45499 31.02 4.93499C32.02 5.91499 32.88 7.00499 33.59 8.20499C35.17 10.845 35.93 13.715 35.95 17.105Z" fill="#878D8A"/>
<path d="M31.1599 17.005C31.0399 20.195 29.9299 22.885 27.7499 25.135C27.4599 25.435 27.1199 25.625 26.6899 25.575C26.2099 25.525 25.8599 25.275 25.6899 24.815C25.5199 24.345 25.5999 23.915 25.9499 23.555C26.6799 22.805 27.2999 21.975 27.7699 21.035C29.5599 17.475 28.8999 13.085 26.1499 10.195C25.9399 9.975 25.7399 9.705 25.6499 9.415C25.4899 8.895 25.7499 8.365 26.2199 8.105C26.6999 7.845 27.2599 7.915 27.6699 8.325C28.7699 9.415 29.6199 10.675 30.2299 12.105C30.8999 13.685 31.1899 15.345 31.1699 16.995L31.1599 17.005Z" fill="#878D8A"/>
</svg>
